<svg xmlns="http://www.w3.org/2000/svg" width="64" height="64" viewBox="0 0 64 64">
	<path fill="#a730b8" d="M12.088 23.868a6.734 6.732 0 0 1-2.88 2.866L25.02 42.602l3.812-1.93Zm20.857 20.93-3.812 1.932 8.012 8.04a6.734 6.732 0 0 1 2.88-2.866z"/>
	<path fill="#5496be" d="m51.24 30.147-8.952 4.535.66 4.22 10.128-5.131a6.734 6.732 0 0 1-1.837-3.624Zm-14.15 7.168L15.926 48.038a6.734 6.732 0 0 1 1.837 3.624l19.989-10.127z"/>
	<path fill="#ce3d1a" d="M30.284 10.9 20.071 30.833l3.016 3.027L33.9 12.755a6.734 6.732 0 0 1-3.616-1.854zm-12.87 25.117-5.172 10.095a6.734 6.732 0 0 1 3.615 1.855l4.573-8.925z"/>
	<path fill="#d0188f" d="M9.12 26.778a6.734 6.732 0 0 1-3.364.703 6.734 6.732 0 0 1-.65-.068l3.02 19.316a6.734 6.732 0 0 1 3.365-.703 6.734 6.732 0 0 1 .65.068z"/>
	<path fill="#5b36e9" d="M17.779 51.758a6.734 6.732 0 0 1 .07 1.356 6.734 6.732 0 0 1-.71 2.656l19.318 3.099a6.734 6.732 0 0 1-.07-1.356 6.734 6.732 0 0 1 .71-2.656Z"/>
	<path fill="#30b873" d="m53.144 33.841-8.917 17.402a6.734 6.732 0 0 1 3.617 1.855l8.916-17.402a6.734 6.732 0 0 1-3.616-1.855z"/>
	<path fill="#ebe305" d="M40.983 9.229a6.734 6.732 0 0 1-2.88 2.866L51.91 25.953a6.734 6.732 0 0 1 2.88-2.867z"/>
	<path fill="#f47601" d="M28.38 7.206 10.922 16.05a6.734 6.732 0 0 1 1.837 3.624l17.456-8.844a6.734 6.732 0 0 1-1.837-3.624Z"/>
	<path fill="#57c115" d="M38.07 12.111a6.734 6.732 0 0 1-3.42.731 6.734 6.732 0 0 1-.589-.062l1.546 9.898 4.22.677zm-1.564 16.322 3.656 23.402a6.734 6.732 0 0 1 3.315-.678 6.734 6.732 0 0 1 .705.077L40.726 29.11Z"/>
	<path fill="#dbb210" d="M12.772 19.748a6.734 6.732 0 0 1 .075 1.377 6.734 6.732 0 0 1-.7 2.637l9.909 1.59 1.947-3.801zm16.984 2.726-1.948 3.803 23.413 3.759a6.734 6.732 0 0 1-.068-1.341 6.734 6.732 0 0 1 .718-2.67z"/>
	<circle fill="#ffca00" cx="35.017" cy="6.12" r="6.12"/>
	<circle fill="#64ff00" cx="57.878" cy="29.062" r="6.12"/>
	<circle fill="#00a3ff" cx="43.111" cy="57.88" r="6.12"/>
	<circle fill="#9500ff" cx="11.124" cy="52.749" r="6.12"/>
	<circle fill="red" cx="6.122" cy="20.759" r="6.12"/>
</svg>
