<svg xmlns="http://www.w3.org/2000/svg" width="1280" height="240" viewBox="0 0 1280 240">
<g>
<path d="M 214.00,239.61 L 214.00,239.58 L 214.28,239.05 L 214.46,238.71 L 215.07,237.61 L 215.41,237.00 L 216.31,235.39 L 216.80,234.53 L 217.97,232.48 L 218.58,231.40 L 219.97,228.97 L 220.68,227.72 L 222.26,224.98 L 227.50,215.89 L 228.67,213.86 L 230.78,210.19 L 231.79,208.41 L 233.57,205.22 L 234.42,203.69 L 235.90,200.97 L 236.60,199.67 L 237.77,197.41 L 238.32,196.33 L 239.20,194.50 L 239.61,193.64 L 240.21,192.23 L 240.48,191.57 L 240.80,190.56 L 241.00,189.48 L 241.00,189.39 L 240.96,188.89 L 240.94,188.59 L 240.85,187.67 L 240.80,187.16 L 240.67,185.86 L 240.60,185.16 L 240.43,183.50 L 240.34,182.62 L 240.13,180.62 L 240.02,179.59 L 239.78,177.28 L 239.65,176.10 L 239.38,173.51 L 239.23,172.19 L 238.93,169.36 L 238.61,166.47 L 237.91,160.05 L 237.55,156.75 L 236.77,149.68 L 236.38,146.08 L 235.55,138.58 L 235.13,134.80 L 234.27,127.08 L 233.40,119.35 L 231.70,104.18 L 231.28,100.48 L 230.48,93.43 L 230.09,89.98 L 229.36,83.59 L 229.00,80.49 L 228.36,74.98 L 228.21,73.66 L 227.93,71.24 L 227.79,70.06 L 227.54,67.93 L 227.42,66.90 L 227.20,65.09 L 227.09,64.23 L 226.91,62.77 L 226.83,62.08 L 226.69,61.00 L 226.53,59.82 L 226.41,59.00 L 226.30,57.64 L 226.27,57.00 L 226.47,55.98 L 226.62,55.50 L 227.28,54.77 L 227.69,54.43 L 228.99,53.94 L 229.73,53.72 L 231.82,53.42 L 232.98,53.29 L 236.02,53.14 L 236.85,53.11 L 238.72,53.07 L 239.68,53.05 L 241.84,53.02 L 242.96,53.01 L 245.43,53.00 L 249.51,53.00 L 251.32,53.00 L 254.56,53.02 L 256.11,53.03 L 258.85,53.07 L 260.15,53.09 L 262.41,53.15 L 263.49,53.19 L 265.30,53.27 L 266.15,53.32 L 267.52,53.43 L 268.16,53.50 L 269.13,53.64 L 269.56,53.71 L 270.15,53.88 L 270.61,54.17 L 270.64,54.23 L 270.81,55.11 L 270.91,55.67 L 271.18,57.45 L 271.33,58.43 L 271.69,60.98 L 271.88,62.33 L 272.32,65.51 L 272.54,67.17 L 273.04,70.86 L 273.29,72.75 L 273.83,76.82 L 274.37,80.96 L 275.51,89.82 L 276.07,94.26 L 277.16,102.96 L 277.42,105.08 L 277.92,109.10 L 278.16,111.07 L 278.59,114.70 L 278.80,116.45 L 279.16,119.55 L 279.33,121.03 L 279.60,123.48 L 279.72,124.61 L 279.88,126.27 L 279.99,127.75 L 279.99,128.09 L 280.55,128.63 L 281.89,129.00 L 282.12,129.00 L 282.73,128.61 L 282.91,128.46 L 283.33,128.02 L 283.55,127.76 L 284.10,127.08 L 284.39,126.70 L 285.08,125.72 L 285.45,125.19 L 286.32,123.88 L 286.78,123.18 L 287.85,121.49 L 288.42,120.59 L 289.72,118.48 L 290.41,117.37 L 291.97,114.80 L 292.78,113.45 L 294.63,110.37 L 295.59,108.76 L 297.75,105.12 L 298.87,103.23 L 301.37,99.00 L 302.66,96.80 L 305.52,91.93 L 307.00,89.41 L 310.26,83.85 L 311.94,80.98 L 315.61,74.69 L 321.63,64.39 L 322.36,63.14 L 323.81,60.77 L 324.51,59.62 L 325.80,57.62 L 326.41,56.69 L 327.39,55.30 L 328.35,54.12 L 328.47,54.02 L 329.00,53.84 L 329.31,53.76 L 330.22,53.61 L 330.73,53.54 L 332.06,53.43 L 332.77,53.38 L 334.53,53.30 L 335.47,53.26 L 337.69,53.21 L 338.87,53.19 L 341.57,53.17 L 342.99,53.17 L 346.20,53.18 L 351.61,53.23 L 354.03,53.26 L 358.11,53.32 L 360.04,53.35 L 363.21,53.43 L 364.69,53.46 L 367.07,53.56 L 368.17,53.61 L 369.86,53.73 L 370.63,53.80 L 371.76,53.96 L 372.26,54.05 L 372.93,54.27 L 373.22,54.38 L 373.55,54.65 L 373.79,55.15 L 373.81,55.24 L 373.74,55.58 L 373.68,55.78 L 373.44,56.38 L 373.30,56.72 L 372.85,57.64 L 372.60,58.15 L 371.91,59.44 L 371.53,60.14 L 370.56,61.88 L 370.04,62.81 L 368.76,65.04 L 368.07,66.22 L 366.44,69.01 L 365.58,70.48 L 363.57,73.89 L 362.51,75.67 L 360.08,79.75 L 358.81,81.88 L 355.93,86.69 L 354.43,89.20 L 351.05,94.80 L 349.30,97.71 L 345.41,104.17 L 344.40,105.84 L 342.28,109.36 L 341.20,111.14 L 338.94,114.89 L 337.79,116.79 L 335.37,120.78 L 334.15,122.80 L 331.59,127.04 L 330.29,129.19 L 327.57,133.68 L 326.19,135.96 L 323.31,140.71 L 321.85,143.12 L 318.80,148.15 L 314.04,156.00 L 312.90,157.89 L 310.38,162.05 L 309.10,164.19 L 306.36,168.73 L 303.59,173.34 L 297.77,183.06 L 294.88,187.91 L 289.32,197.23 L 287.99,199.49 L 285.48,203.72 L 282.06,209.50 L 279.96,213.07 L 276.01,219.77 L 275.06,221.38 L 273.28,224.40 L 272.41,225.86 L 270.84,228.52 L 270.08,229.80 L 268.76,232.04 L 268.13,233.09 L 267.10,234.82 L 266.63,235.62 L 265.95,236.77 L 265.35,237.75 L 265.00,238.31 L 264.14,239.04 L 263.84,239.20 L 262.94,239.44 L 262.43,239.55 L 260.95,239.71 L 260.12,239.78 L 257.86,239.88 L 257.24,239.90 L 255.81,239.93 L 255.07,239.94 L 253.37,239.96 L 252.49,239.97 L 250.51,239.98 L 249.48,239.99 L 247.18,240.00 L 245.99,240.00 L 243.35,240.00 L 238.98,240.00 L 235.54,240.00 L 229.28,239.97 L 227.79,239.96 L 225.04,239.93 L 223.71,239.92 L 221.34,239.88 L 220.21,239.87 L 218.28,239.83 L 217.38,239.81 L 215.97,239.76 L 215.34,239.74 L 214.51,239.69 L 214.18,239.66 M 979.19,234.95 L 978.55,234.81 L 977.04,234.46 L 976.26,234.27 L 974.50,233.83 L 972.69,233.37 L 968.60,232.25 L 966.51,231.67 L 962.24,230.42 L 956.19,228.56 L 950.25,226.66 L 938.92,223.20 L 936.15,222.37 L 930.82,220.81 L 928.20,220.05 L 923.20,218.65 L 920.75,217.98 L 916.13,216.75 L 913.87,216.15 L 909.69,215.11 L 907.66,214.61 L 903.98,213.77 L 899.06,212.75 L 896.53,212.26 L 892.07,211.59 L 890.95,211.44 L 888.61,211.20 L 887.41,211.09 L 884.78,210.92 L 883.41,210.84 L 880.30,210.73 L 878.66,210.68 L 874.87,210.61 L 872.87,210.59 L 868.20,210.56 L 866.97,210.55 L 864.31,210.54 L 860.00,210.54 L 857.99,210.54 L 854.28,210.54 L 852.48,210.55 L 849.15,210.58 L 847.53,210.59 L 844.53,210.64 L 843.06,210.67 L 840.34,210.75 L 837.67,210.85 L 832.95,211.16 L 830.66,211.34 L 826.39,211.87 L 824.28,212.17 L 820.06,212.98 L 817.92,213.42 L 813.36,214.56 L 810.99,215.18 L 805.67,216.72 L 804.28,217.13 L 801.28,218.03 L 796.41,219.52 L 794.16,220.21 L 789.86,221.51 L 787.74,222.15 L 783.71,223.33 L 779.74,224.49 L 772.50,226.49 L 768.98,227.43 L 762.48,229.03 L 759.31,229.79 L 753.36,231.04 L 750.44,231.62 L 744.86,232.55 L 742.09,232.98 L 736.68,233.63 L 733.97,233.93 L 728.52,234.35 L 720.10,234.75 L 717.25,234.83 L 711.86,234.86 L 709.21,234.85 L 704.12,234.67 L 701.60,234.55 L 696.70,234.16 L 694.26,233.93 L 689.45,233.30 L 687.05,232.95 L 682.23,232.06 L 679.82,231.59 L 674.88,230.44 L 672.40,229.83 L 667.25,228.40 L 659.18,225.93 L 657.37,225.35 L 653.17,224.08 L 651.00,223.44 L 646.24,222.10 L 641.39,220.75 L 631.03,218.09 L 628.47,217.45 L 623.48,216.25 L 621.04,215.67 L 616.46,214.64 L 614.25,214.15 L 610.33,213.35 L 605.45,212.47 L 604.63,212.34 L 602.71,212.11 L 601.70,212.00 L 599.44,211.80 L 598.27,211.71 L 595.71,211.54 L 594.39,211.46 L 591.56,211.33 L 588.68,211.20 L 582.27,211.05 L 578.98,210.99 L 571.99,210.96 L 564.92,210.96 L 550.29,211.36 L 546.69,211.49 L 539.74,211.85 L 529.98,212.53 L 526.20,212.84 L 518.88,213.58 L 515.25,213.96 L 508.18,214.83 L 501.15,215.74 L 487.49,218.05 L 480.68,219.29 L 466.97,222.35 L 463.52,223.17 L 456.48,224.97 L 445.67,227.92 L 444.50,228.25 L 442.35,228.85 L 441.31,229.15 L 439.41,229.67 L 437.57,230.17 L 434.55,230.94 L 433.14,231.28 L 430.87,231.73 L 429.82,231.92 L 428.18,232.07 L 427.42,232.11 L 426.25,231.96 L 425.71,231.84 L 424.88,231.40 L 424.50,231.14 L 423.87,230.41 L 423.00,229.00 L 422.66,228.36 L 422.42,226.84 L 422.37,226.06 L 422.65,224.49 L 422.85,223.72 L 423.59,222.38 L 425.11,220.94 L 425.43,220.77 L 426.50,220.33 L 427.10,220.10 L 428.66,219.56 L 429.50,219.27 L 431.50,218.64 L 432.55,218.31 L 434.93,217.61 L 436.15,217.25 L 438.83,216.49 L 440.20,216.10 L 443.11,215.30 L 446.07,214.49 L 452.43,212.83 L 455.64,212.01 L 462.10,210.41 L 465.29,209.63 L 471.31,208.24 L 472.77,207.91 L 475.51,207.31 L 476.84,207.02 L 479.30,206.52 L 480.48,206.28 L 482.58,205.89 L 485.25,205.45 L 486.54,205.27 L 488.37,204.76 L 488.76,204.63 L 489.33,204.35 L 489.58,204.22 L 489.86,203.95 L 489.96,203.82 L 489.94,203.58 L 489.88,203.47 L 489.53,203.28 L 489.32,203.19 L 488.62,203.08 L 487.18,203.00 L 486.05,203.00 L 483.74,202.72 L 482.58,202.54 L 480.25,201.92 L 479.09,201.58 L 476.82,200.67 L 475.69,200.18 L 473.54,199.01 L 472.48,198.40 L 470.52,197.01 L 469.57,196.29 L 467.86,194.73 L 467.05,193.93 L 465.66,192.22 L 464.02,189.54 L 463.51,188.49 L 462.72,186.41 L 462.37,185.36 L 461.93,183.08 L 461.75,181.88 L 461.70,179.10 L 461.72,177.62 L 462.09,174.04 L 462.21,173.09 L 462.53,170.97 L 462.71,169.88 L 463.15,167.47 L 463.38,166.22 L 463.95,163.48 L 464.24,162.06 L 464.94,158.94 L 465.30,157.33 L 466.12,153.81 L 466.55,151.99 L 467.50,148.02 L 468.00,145.98 L 469.10,141.53 L 470.91,134.27 L 471.53,131.78 L 472.74,126.94 L 473.33,124.56 L 474.44,120.00 L 474.98,117.78 L 475.98,113.62 L 476.47,111.60 L 477.33,107.94 L 477.74,106.19 L 478.44,103.14 L 478.77,101.70 L 479.28,99.36 L 479.51,98.29 L 479.81,96.77 L 480.00,95.52 L 480.00,94.90 L 479.86,94.07 L 479.72,93.72 L 478.90,93.32 L 478.63,93.24 L 477.87,93.14 L 477.45,93.09 L 476.34,93.04 L 475.74,93.02 L 474.22,93.01 L 471.41,93.00 L 470.44,93.00 L 468.81,92.99 L 468.04,92.98 L 466.78,92.94 L 466.19,92.92 L 465.24,92.84 L 464.80,92.80 L 464.12,92.68 L 463.49,92.54 L 462.82,92.07 L 462.29,91.00 L 462.15,90.45 L 461.56,89.59 L 460.55,89.00 L 460.47,89.00 L 459.96,89.07 L 459.65,89.12 L 458.72,89.28 L 458.21,89.36 L 456.91,89.60 L 456.23,89.72 L 454.62,90.02 L 452.94,90.34 L 448.86,91.13 L 442.06,92.49 L 439.68,92.97 L 435.28,93.80 L 433.16,94.19 L 429.59,94.79 L 428.77,94.93 L 427.34,95.14 L 426.67,95.23 L 425.59,95.37 L 425.10,95.42 L 424.42,95.47 L 423.89,95.43 L 423.64,95.28 L 423.26,94.64 L 423.00,93.51 L 423.00,93.24 L 422.78,92.66 L 422.64,92.36 L 422.17,91.74 L 421.65,91.12 L 420.11,89.95 L 419.29,89.39 L 417.45,88.56 L 414.82,88.00 L 413.90,88.00 L 411.94,88.42 L 410.95,88.68 L 409.06,89.52 L 408.15,89.98 L 406.62,91.11 L 405.03,92.94 L 404.63,93.68 L 404.19,95.10 L 404.04,95.80 L 404.10,97.17 L 404.20,97.85 L 404.80,99.20 L 405.17,99.87 L 406.34,101.25 L 407.00,101.94 L 408.78,103.37 L 409.74,104.10 L 412.16,105.62 L 413.46,106.40 L 416.55,108.06 L 422.00,110.74 L 423.12,111.26 L 425.16,112.22 L 426.15,112.68 L 427.93,113.53 L 429.66,114.35 L 432.47,115.70 L 433.78,116.33 L 435.88,117.40 L 436.86,117.92 L 438.44,118.81 L 439.92,119.69 L 442.11,121.38 L 442.66,121.83 L 443.78,122.86 L 445.69,124.69 L 447.15,126.11 L 449.60,129.03 L 450.74,130.51 L 452.55,133.59 L 453.38,135.15 L 454.56,138.38 L 455.07,140.02 L 455.62,143.43 L 455.82,145.15 L 455.74,148.74 L 455.62,150.56 L 454.92,154.35 L 454.49,156.28 L 453.15,160.28 L 450.45,166.53 L 449.06,169.34 L 445.65,174.56 L 443.84,177.10 L 439.65,181.74 L 437.46,183.98 L 432.57,187.99 L 430.04,189.91 L 424.54,193.26 L 421.71,194.84 L 415.66,197.46 L 412.58,198.68 L 406.07,200.55 L 402.77,201.38 L 395.89,202.44 L 385.22,203.07 L 383.27,203.07 L 379.56,202.94 L 377.74,202.86 L 374.30,202.56 L 372.60,202.39 L 369.39,201.93 L 367.81,201.67 L 364.81,201.03 L 361.87,200.34 L 356.55,198.42 L 349.30,194.69 L 348.20,194.00 L 346.05,192.07 L 344.98,191.03 L 342.95,188.56 L 341.96,187.28 L 340.16,184.50 L 339.29,183.09 L 337.83,180.21 L 337.14,178.77 L 336.11,176.01 L 335.66,174.66 L 335.18,172.24 L 335.01,171.09 L 335.17,169.22 L 335.25,168.80 L 335.56,168.10 L 336.25,167.29 L 336.34,167.22 L 336.93,167.01 L 337.30,166.89 L 338.41,166.58 L 339.03,166.41 L 340.59,166.02 L 341.42,165.82 L 343.37,165.36 L 344.39,165.12 L 346.67,164.61 L 347.85,164.35 L 350.39,163.80 L 358.74,162.07 L 379.98,157.82 L 382.56,160.89 L 383.24,161.69 L 384.83,162.99 L 385.66,163.59 L 387.48,164.48 L 388.41,164.88 L 390.37,165.37 L 391.35,165.56 L 393.34,165.64 L 394.33,165.63 L 396.24,165.31 L 397.18,165.10 L 398.93,164.38 L 399.77,163.96 L 401.24,162.84 L 403.04,160.70 L 403.58,159.82 L 404.42,157.94 L 404.60,157.49 L 404.84,156.70 L 405.00,155.78 L 405.00,155.36 L 404.71,154.43 L 404.52,153.95 L 403.86,152.93 L 403.48,152.41 L 402.45,151.29 L 401.88,150.71 L 400.47,149.50 L 399.71,148.88 L 397.93,147.58 L 396.99,146.91 L 394.83,145.52 L 393.70,144.81 L 391.18,143.32 L 386.98,141.00 L 383.63,139.21 L 376.57,135.09 L 374.91,134.09 L 372.00,132.26 L 371.32,131.82 L 370.13,131.03 L 368.65,129.99 L 366.79,128.63 L 363.61,125.72 L 362.10,124.24 L 359.62,121.10 L 358.47,119.51 L 356.70,116.16 L 355.91,114.46 L 354.86,110.92 L 354.42,109.13 L 354.09,105.42 L 354.02,103.55 L 354.41,99.69 L 354.70,97.75 L 355.83,93.76 L 358.35,87.66 L 359.55,85.24 L 362.41,80.71 L 363.91,78.50 L 367.35,74.40 L 369.14,72.41 L 373.12,68.76 L 375.17,67.00 L 379.65,63.83 L 381.95,62.31 L 386.90,59.65 L 389.42,58.38 L 394.79,56.25 L 397.52,55.25 L 403.28,53.67 L 412.31,51.95 L 414.70,51.63 L 419.56,51.37 L 421.99,51.30 L 426.85,51.55 L 429.27,51.74 L 434.03,52.46 L 436.38,52.88 L 440.93,54.04 L 443.16,54.68 L 447.39,56.25 L 449.45,57.09 L 453.24,59.05 L 455.08,60.08 L 458.34,62.39 L 462.50,66.21 L 466.90,71.10 L 467.89,67.30 L 468.17,66.26 L 468.79,63.74 L 469.56,60.50 L 469.75,59.65 L 470.13,58.23 L 470.33,57.56 L 470.77,56.47 L 471.00,55.96 L 471.56,55.15 L 471.86,54.77 L 472.61,54.21 L 473.02,53.95 L 474.03,53.59 L 474.57,53.42 L 475.89,53.22 L 476.61,53.13 L 478.32,53.04 L 481.40,53.00 L 482.77,53.00 L 485.09,52.92 L 486.17,52.87 L 487.89,52.68 L 488.67,52.58 L 489.78,52.29 L 490.74,51.75 L 490.81,51.66 L 491.04,51.09 L 491.17,50.74 L 491.51,49.69 L 491.69,49.11 L 492.13,47.64 L 492.36,46.85 L 492.87,45.02 L 493.14,44.06 L 493.72,41.91 L 494.01,40.81 L 494.64,38.41 L 496.61,30.58 L 497.28,27.84 L 498.61,22.74 L 498.94,21.51 L 499.57,19.23 L 499.87,18.13 L 500.45,16.12 L 500.73,15.16 L 501.25,13.49 L 501.49,12.70 L 501.92,11.42 L 502.13,10.83 L 502.46,10.00 L 502.82,9.33 L 502.95,9.20 L 503.40,8.98 L 503.67,8.87 L 504.43,8.69 L 504.86,8.61 L 505.99,8.46 L 506.61,8.40 L 508.15,8.29 L 508.98,8.24 L 510.99,8.16 L 512.05,8.12 L 514.58,8.07 L 515.91,8.05 L 519.00,8.03 L 524.32,8.02 L 527.10,8.02 L 532.27,8.10 L 533.52,8.12 L 535.84,8.18 L 536.97,8.22 L 539.01,8.30 L 539.99,8.35 L 541.70,8.44 L 542.50,8.49 L 543.82,8.60 L 544.42,8.66 L 545.28,8.78 L 545.99,8.97 L 546.14,9.07 L 546.38,9.39 L 546.48,9.58 L 546.58,10.15 L 546.62,10.47 L 546.58,11.38 L 546.54,11.88 L 546.35,13.22 L 546.23,13.95 L 545.85,15.81 L 545.65,16.81 L 545.09,19.29 L 544.78,20.61 L 544.02,23.80 L 542.62,29.48 L 541.95,32.17 L 540.73,37.21 L 540.43,38.42 L 539.89,40.69 L 539.63,41.80 L 539.16,43.80 L 538.93,44.77 L 538.54,46.45 L 538.36,47.25 L 538.07,48.56 L 537.94,49.16 L 537.76,50.02 L 537.64,50.77 L 537.61,51.14 L 537.89,51.69 L 538.12,51.94 L 539.15,52.31 L 539.46,52.40 L 540.29,52.55 L 540.74,52.63 L 541.86,52.77 L 542.46,52.84 L 543.91,52.98 L 546.50,53.19 L 547.74,53.28 L 550.07,53.45 L 551.20,53.53 L 553.15,53.65 L 554.06,53.71 L 555.40,53.78 L 556.50,53.81 L 556.57,53.81 L 557.13,53.79 L 557.48,53.78 L 558.57,53.75 L 559.17,53.74 L 560.70,53.71 L 561.52,53.69 L 563.45,53.65 L 564.46,53.62 L 566.73,53.58 L 567.89,53.55 L 570.43,53.50 L 578.77,53.34 L 581.20,53.29 L 585.27,53.22 L 587.18,53.19 L 590.31,53.16 L 591.77,53.15 L 594.09,53.17 L 595.16,53.18 L 596.80,53.26 L 597.54,53.30 L 598.62,53.44 L 599.10,53.52 L 599.75,53.73 L 600.70,54.65 L 600.73,54.73 L 600.69,55.32 L 600.65,55.68 L 600.48,56.77 L 600.39,57.37 L 600.11,58.89 L 599.96,59.70 L 599.58,61.59 L 599.39,62.57 L 598.93,64.74 L 598.70,65.86 L 598.18,68.26 L 597.66,70.71 L 596.47,75.98 L 595.87,78.63 L 594.64,83.91 L 594.02,86.50 L 592.86,91.23 L 592.58,92.36 L 592.05,94.41 L 591.80,95.40 L 591.33,97.12 L 591.11,97.94 L 590.72,99.27 L 590.24,100.75 L 590.10,101.13 L 590.00,101.64 L 589.97,101.86 L 590.06,102.09 L 590.12,102.16 L 590.38,102.11 L 590.52,102.05 L 590.92,101.76 L 591.35,101.40 L 592.49,100.05 L 594.43,97.25 L 594.63,96.92 L 595.26,96.05 L 595.61,95.59 L 596.51,94.48 L 596.98,93.90 L 598.10,92.59 L 598.68,91.91 L 599.99,90.44 L 601.33,88.95 L 604.39,85.69 L 609.23,80.76 L 621.09,69.01 L 623.78,48.51 L 624.15,45.69 L 624.90,40.54 L 625.08,39.32 L 625.44,37.06 L 625.62,35.97 L 625.96,34.02 L 626.13,33.09 L 626.43,31.51 L 626.58,30.78 L 626.85,29.62 L 626.97,29.10 L 627.19,28.42 L 627.44,28.00 L 627.50,28.00 L 627.90,28.27 L 628.14,28.44 L 628.86,29.04 L 629.25,29.37 L 630.25,30.25 L 630.78,30.72 L 632.02,31.85 L 632.66,32.45 L 634.10,33.80 L 634.84,34.50 L 636.44,36.03 L 641.66,41.12 L 642.70,42.15 L 644.65,44.04 L 645.59,44.96 L 647.34,46.61 L 648.19,47.41 L 649.73,48.82 L 650.47,49.49 L 651.78,50.63 L 652.41,51.17 L 653.49,52.05 L 654.00,52.45 L 654.83,53.04 L 655.22,53.30 L 655.79,53.60 L 656.33,53.70 L 656.52,53.63 L 657.25,53.44 L 657.66,53.34 L 658.70,53.11 L 662.43,52.46 L 667.11,51.76 L 675.60,34.81 L 676.76,32.48 L 678.96,28.25 L 679.49,27.25 L 680.48,25.40 L 680.97,24.51 L 681.85,22.93 L 682.28,22.18 L 683.02,20.91 L 683.37,20.31 L 683.96,19.39 L 684.23,18.98 L 684.62,18.46 L 684.97,18.18 L 685.03,18.20 L 685.35,18.64 L 685.53,18.91 L 686.08,19.82 L 686.37,20.32 L 687.12,21.65 L 687.51,22.35 L 688.43,24.04 L 688.90,24.92 L 689.96,26.92 L 690.50,27.95 L 691.67,30.21 L 695.48,37.68 L 696.04,38.80 L 697.07,40.84 L 697.56,41.83 L 698.48,43.64 L 699.37,45.39 L 700.87,48.27 L 701.57,49.62 L 702.76,51.77 L 703.33,52.78 L 704.30,54.35 L 704.77,55.08 L 705.61,56.20 L 706.02,56.72 L 706.82,57.53 L 709.45,59.42 L 711.12,60.40 L 714.70,63.06 L 716.49,64.48 L 720.00,67.74 L 721.71,69.40 L 724.77,72.86 L 725.48,73.71 L 726.76,75.40 L 728.40,77.84 L 729.19,79.14 L 730.78,82.36 L 731.56,84.05 L 733.05,87.80 L 733.76,89.71 L 735.01,93.64 L 736.49,99.37 L 736.66,100.16 L 737.09,101.22 L 737.20,101.43 L 737.40,101.66 L 737.67,101.66 L 737.71,101.62 L 737.91,101.07 L 738.02,100.72 L 738.36,99.61 L 738.54,98.98 L 738.99,97.36 L 739.23,96.50 L 739.78,94.44 L 740.07,93.36 L 740.71,90.94 L 741.04,89.68 L 741.75,86.95 L 744.05,77.90 L 744.84,74.71 L 746.40,68.83 L 746.78,67.42 L 747.51,64.82 L 747.86,63.55 L 748.53,61.28 L 748.85,60.19 L 749.44,58.32 L 749.72,57.44 L 750.20,56.03 L 750.42,55.39 L 750.79,54.52 L 751.17,53.87 L 751.28,53.80 L 751.92,53.68 L 752.30,53.62 L 753.44,53.51 L 754.06,53.46 L 755.61,53.37 L 756.43,53.32 L 758.33,53.25 L 760.31,53.18 L 764.98,53.10 L 767.40,53.06 L 772.51,53.05 L 775.07,53.05 L 780.04,53.10 L 782.45,53.14 L 786.69,53.26 L 787.68,53.30 L 789.42,53.38 L 790.24,53.42 L 791.59,53.53 L 792.21,53.58 L 793.11,53.69 L 793.86,53.89 L 794.33,54.19 L 794.72,55.30 L 794.78,55.62 L 794.75,56.43 L 794.53,57.88 L 794.34,58.73 L 794.17,60.08 L 794.15,60.37 L 794.16,60.75 L 794.28,61.00 L 794.34,61.00 L 795.05,60.72 L 795.49,60.54 L 796.82,59.97 L 797.55,59.65 L 799.34,58.85 L 802.33,57.48 L 805.15,56.18 L 810.50,54.22 L 813.14,53.35 L 818.24,52.24 L 820.77,51.78 L 825.76,51.48 L 833.29,51.92 L 835.29,52.19 L 839.06,52.97 L 840.91,53.40 L 844.39,54.51 L 846.10,55.10 L 849.28,56.53 L 850.83,57.28 L 853.71,59.02 L 855.11,59.93 L 857.67,61.98 L 858.91,63.04 L 861.15,65.40 L 862.23,66.62 L 864.15,69.27 L 866.64,73.60 L 867.05,74.42 L 867.75,75.88 L 868.07,76.59 L 868.62,77.87 L 869.14,79.13 L 869.83,81.47 L 870.13,82.67 L 870.51,85.42 L 870.59,86.16 L 870.74,87.84 L 870.93,90.74 L 871.50,100.36 L 874.43,96.43 L 877.14,92.80 L 883.13,86.01 L 886.21,82.70 L 892.81,76.65 L 896.17,73.74 L 903.19,68.61 L 904.96,67.39 L 908.56,65.15 L 914.00,62.10 L 916.28,60.92 L 920.86,58.87 L 923.15,57.89 L 927.74,56.22 L 930.04,55.43 L 934.63,54.15 L 936.92,53.56 L 941.47,52.66 L 943.74,52.26 L 948.23,51.74 L 950.47,51.52 L 954.89,51.38 L 957.08,51.35 L 961.39,51.57 L 963.53,51.73 L 967.72,52.33 L 969.79,52.67 L 973.82,53.62 L 975.82,54.14 L 979.68,55.46 L 981.58,56.16 L 985.24,57.83 L 987.04,58.71 L 990.48,60.73 L 992.17,61.78 L 995.36,64.15 L 996.92,65.38 L 999.85,68.09 L 1001.27,69.49 L 1003.90,72.54 L 1007.49,77.50 L 1008.41,78.93 L 1010.14,82.21 L 1010.98,83.89 L 1012.47,87.46 L 1013.18,89.25 L 1014.31,92.81 L 1015.48,97.85 L 1015.58,98.44 L 1015.83,99.47 L 1015.96,99.94 L 1016.25,100.67 L 1016.39,100.98 L 1016.67,101.33 L 1017.06,101.34 L 1017.09,101.31 L 1017.20,101.02 L 1017.27,100.83 L 1017.46,100.24 L 1017.56,99.91 L 1017.82,99.04 L 1017.96,98.56 L 1018.28,97.42 L 1018.62,96.22 L 1019.47,93.07 L 1019.93,91.39 L 1020.99,87.38 L 1021.54,85.28 L 1022.77,80.53 L 1023.40,78.08 L 1024.77,72.73 L 1025.47,69.99 L 1026.94,64.15 L 1029.23,55.00 L 1030.01,51.87 L 1031.53,45.83 L 1032.27,42.86 L 1033.69,37.23 L 1034.39,34.48 L 1035.69,29.39 L 1036.32,26.92 L 1037.46,22.50 L 1038.01,20.38 L 1038.96,16.75 L 1039.41,15.04 L 1040.14,12.33 L 1040.31,11.71 L 1040.60,10.67 L 1040.73,10.19 L 1040.95,9.43 L 1041.05,9.08 L 1041.20,8.61 L 1041.34,8.25 L 1041.40,8.16 L 1041.98,7.98 L 1042.34,7.90 L 1043.46,7.74 L 1044.09,7.67 L 1045.68,7.54 L 1046.52,7.47 L 1048.49,7.36 L 1049.52,7.30 L 1051.80,7.21 L 1052.96,7.16 L 1055.46,7.09 L 1058.00,7.03 L 1063.40,6.96 L 1066.09,6.94 L 1071.33,6.97 L 1072.60,6.98 L 1074.99,7.03 L 1076.16,7.05 L 1078.29,7.12 L 1079.32,7.16 L 1081.11,7.26 L 1081.96,7.31 L 1083.32,7.43 L 1083.94,7.50 L 1084.81,7.65 L 1085.44,7.90 L 1085.46,7.94 L 1085.44,8.23 L 1085.42,8.41 L 1085.33,9.00 L 1085.27,9.33 L 1085.11,10.19 L 1085.02,10.66 L 1084.78,11.78 L 1084.53,12.97 L 1083.85,16.07 L 1083.48,17.73 L 1082.58,21.68 L 1082.10,23.74 L 1081.00,28.41 L 1080.43,30.82 L 1079.17,36.08 L 1078.52,38.78 L 1077.12,44.51 L 1074.91,53.51 L 1074.24,56.19 L 1073.03,61.11 L 1072.44,63.50 L 1071.37,67.87 L 1070.85,69.99 L 1069.92,73.84 L 1069.47,75.71 L 1068.68,79.07 L 1068.29,80.70 L 1067.63,83.60 L 1067.31,85.00 L 1066.77,87.47 L 1066.51,88.66 L 1066.09,90.73 L 1065.89,91.71 L 1065.58,93.41 L 1065.44,94.22 L 1065.24,95.57 L 1065.16,96.21 L 1065.06,97.25 L 1065.03,97.73 L 1065.03,98.48 L 1065.05,98.82 L 1065.14,99.32 L 1065.27,99.76 L 1065.77,99.98 L 1066.88,99.58 L 1066.95,99.53 L 1067.43,99.00 L 1067.73,98.67 L 1068.62,97.61 L 1069.11,97.02 L 1070.36,95.49 L 1071.02,94.68 L 1072.58,92.74 L 1073.39,91.73 L 1075.21,89.44 L 1076.15,88.26 L 1078.17,85.69 L 1084.81,77.21 L 1087.14,74.22 L 1091.49,68.68 L 1092.54,67.35 L 1094.50,64.87 L 1095.45,63.67 L 1097.19,61.50 L 1098.02,60.46 L 1099.48,58.66 L 1100.17,57.81 L 1101.30,56.43 L 1101.82,55.80 L 1102.58,54.92 L 1103.23,54.23 L 1103.37,54.11 L 1103.91,53.90 L 1104.22,53.80 L 1105.14,53.64 L 1105.65,53.56 L 1107.00,53.44 L 1107.73,53.38 L 1109.57,53.29 L 1110.55,53.26 L 1112.93,53.20 L 1114.20,53.18 L 1117.18,53.17 L 1118.74,53.16 L 1122.37,53.18 L 1128.61,53.23 L 1129.97,53.25 L 1132.45,53.28 L 1133.66,53.29 L 1135.86,53.32 L 1138.00,53.35 L 1141.50,53.43 L 1143.13,53.46 L 1145.72,53.56 L 1146.91,53.61 L 1148.73,53.73 L 1149.55,53.80 L 1150.74,53.97 L 1151.26,54.06 L 1151.95,54.29 L 1152.24,54.41 L 1152.57,54.70 L 1152.81,55.23 L 1152.85,55.48 L 1152.40,56.56 L 1152.09,57.19 L 1150.99,58.90 L 1150.38,59.82 L 1148.75,62.00 L 1145.82,65.64 L 1143.81,68.02 L 1139.77,72.82 L 1138.84,73.93 L 1137.25,75.83 L 1135.51,77.91 L 1135.30,78.16 L 1134.52,79.09 L 1134.07,79.62 L 1132.85,81.07 L 1132.20,81.85 L 1130.60,83.75 L 1129.76,84.75 L 1127.85,87.02 L 1126.85,88.20 L 1124.68,90.78 L 1123.57,92.10 L 1121.20,94.92 L 1113.63,103.89 L 1112.16,105.63 L 1109.45,108.89 L 1108.13,110.48 L 1105.73,113.41 L 1104.57,114.83 L 1102.51,117.42 L 1101.51,118.66 L 1099.80,120.87 L 1098.99,121.93 L 1097.64,123.74 L 1097.02,124.59 L 1096.07,125.97 L 1095.65,126.61 L 1095.11,127.54 L 1094.79,128.39 L 1094.79,128.54 L 1095.03,129.50 L 1095.19,130.08 L 1095.72,131.84 L 1096.02,132.82 L 1096.80,135.28 L 1097.22,136.60 L 1098.23,139.68 L 1098.76,141.28 L 1099.96,144.88 L 1100.58,146.73 L 1101.94,150.73 L 1102.64,152.78 L 1104.13,157.11 L 1106.47,163.85 L 1107.27,166.14 L 1108.80,170.58 L 1109.55,172.77 L 1110.96,176.93 L 1111.65,178.96 L 1112.91,182.74 L 1113.52,184.58 L 1114.60,187.89 L 1115.11,189.47 L 1115.97,192.21 L 1116.38,193.50 L 1117.00,195.58 L 1117.27,196.52 L 1117.62,197.84 L 1117.79,198.85 L 1117.75,199.03 L 1117.54,199.35 L 1117.40,199.49 L 1116.86,199.73 L 1116.54,199.84 L 1115.54,200.02 L 1114.97,200.11 L 1113.37,200.23 L 1112.48,200.29 L 1110.14,200.37 L 1108.87,200.40 L 1105.65,200.45 L 1104.78,200.46 L 1102.86,200.47 L 1101.87,200.48 L 1099.68,200.49 L 1098.54,200.49 L 1096.07,200.50 L 1092.01,200.50 L 1066.55,200.50 L 1060.08,177.75 L 1059.53,175.81 L 1058.53,172.29 L 1058.05,170.59 L 1057.17,167.56 L 1056.75,166.11 L 1055.98,163.57 L 1055.61,162.37 L 1054.93,160.32 L 1054.60,159.37 L 1053.99,157.83 L 1053.69,157.12 L 1053.13,156.08 L 1052.85,155.63 L 1052.33,155.10 L 1052.07,154.90 L 1051.56,154.88 L 1051.30,154.94 L 1050.79,155.44 L 1050.53,155.76 L 1049.99,156.78 L 1049.72,157.35 L 1049.15,158.90 L 1048.85,159.74 L 1048.22,161.81 L 1047.90,162.92 L 1047.19,165.52 L 1046.83,166.89 L 1046.03,170.04 L 1045.61,171.68 L 1044.70,175.36 L 1043.19,181.50 L 1038.50,200.50 L 1016.25,200.77 L 994.00,201.04 L 994.03,198.77 L 994.03,198.61 L 994.16,197.79 L 994.25,197.31 L 994.54,195.88 L 994.71,195.10 L 995.14,193.14 L 995.37,192.10 L 995.93,189.69 L 996.22,188.43 L 996.88,185.64 L 997.22,184.20 L 997.97,181.11 L 1000.46,171.05 L 1001.34,167.55 L 1002.91,161.10 L 1003.28,159.56 L 1003.95,156.70 L 1004.27,155.32 L 1004.84,152.84 L 1005.11,151.65 L 1005.55,149.60 L 1005.76,148.64 L 1006.06,147.11 L 1006.19,146.42 L 1006.34,145.48 L 1006.37,144.80 L 1006.36,144.77 L 1006.06,144.72 L 1005.87,144.69 L 1005.25,144.64 L 1004.90,144.61 L 1003.96,144.56 L 1003.45,144.54 L 1002.22,144.49 L 1001.57,144.46 L 1000.05,144.42 L 999.26,144.40 L 997.49,144.35 L 995.65,144.31 L 991.27,144.23 L 988.97,144.20 L 983.76,144.14 L 981.07,144.11 L 975.18,144.06 L 972.17,144.04 L 965.74,144.02 L 955.63,144.00 L 952.05,144.00 L 945.58,144.00 L 942.45,144.00 L 936.82,144.00 L 934.11,144.01 L 929.28,144.02 L 926.96,144.04 L 922.87,144.07 L 920.92,144.10 L 917.51,144.16 L 915.89,144.20 L 913.12,144.30 L 911.80,144.36 L 909.59,144.50 L 908.56,144.58 L 906.87,144.77 L 906.08,144.88 L 904.85,145.13 L 904.29,145.26 L 903.46,145.58 L 903.09,145.75 L 902.60,146.14 L 902.40,146.35 L 902.20,146.82 L 902.07,147.31 L 902.43,148.57 L 903.46,150.92 L 904.00,152.12 L 905.32,154.29 L 906.01,155.34 L 907.62,157.21 L 908.46,158.12 L 910.36,159.69 L 911.34,160.43 L 913.50,161.69 L 914.62,162.28 L 917.03,163.22 L 918.27,163.65 L 920.92,164.26 L 922.27,164.52 L 925.14,164.79 L 929.68,164.81 L 932.01,164.69 L 936.29,163.99 L 938.38,163.57 L 942.32,162.21 L 944.26,161.44 L 948.04,159.34 L 953.72,155.27 L 955.17,154.10 L 957.99,152.26 L 958.64,151.87 L 959.73,151.34 L 960.89,151.00 L 961.02,151.00 L 961.60,151.06 L 961.94,151.11 L 962.91,151.25 L 963.44,151.32 L 964.74,151.53 L 965.43,151.64 L 967.00,151.90 L 968.64,152.18 L 972.49,152.85 L 974.48,153.20 L 978.70,153.96 L 980.81,154.34 L 984.95,155.11 L 986.97,155.49 L 990.58,156.19 L 991.43,156.35 L 992.95,156.66 L 993.67,156.80 L 994.91,157.06 L 995.48,157.18 L 996.37,157.38 L 997.25,157.60 L 997.94,157.81 L 998.66,158.54 L 998.79,158.75 L 998.87,159.28 L 998.88,159.57 L 998.73,160.25 L 998.62,160.62 L 998.23,161.48 L 998.00,161.93 L 997.36,162.99 L 997.02,163.54 L 996.13,164.81 L 994.51,166.99 L 993.51,168.29 L 991.20,170.94 L 989.99,172.28 L 987.33,174.96 L 985.95,176.30 L 982.99,178.96 L 981.47,180.29 L 978.28,182.88 L 975.03,185.45 L 968.09,190.18 L 966.34,191.31 L 962.80,193.41 L 957.50,196.26 L 956.70,196.66 L 954.79,197.51 L 953.79,197.93 L 951.58,198.80 L 949.31,199.66 L 944.34,201.31 L 941.85,202.09 L 937.07,203.37 L 935.92,203.66 L 933.83,204.11 L 931.07,204.59 L 930.36,204.68 L 929.11,204.88 L 928.51,204.98 L 927.56,205.19 L 927.13,205.29 L 926.59,205.47 L 926.35,205.68 L 926.37,205.71 L 926.76,205.86 L 927.01,205.96 L 927.80,206.24 L 928.24,206.39 L 929.38,206.77 L 929.99,206.97 L 931.45,207.45 L 932.97,207.94 L 936.74,209.14 L 943.13,211.12 L 946.12,212.04 L 951.54,213.70 L 954.16,214.51 L 958.91,215.96 L 961.21,216.65 L 965.38,217.90 L 967.41,218.50 L 971.10,219.55 L 972.89,220.06 L 976.19,220.94 L 977.80,221.36 L 980.79,222.08 L 983.73,222.77 L 989.08,223.71 L 991.73,224.13 L 997.05,224.62 L 999.77,224.82 L 1005.80,224.96 L 1007.38,224.98 L 1010.81,224.98 L 1012.57,224.97 L 1016.42,224.92 L 1018.40,224.89 L 1022.77,224.81 L 1030.00,224.66 L 1032.69,224.61 L 1037.75,224.49 L 1040.23,224.42 L 1044.92,224.28 L 1047.22,224.20 L 1051.59,224.03 L 1053.74,223.93 L 1057.85,223.72 L 1061.90,223.49 L 1069.46,222.90 L 1073.19,222.58 L 1080.44,221.74 L 1084.07,221.29 L 1091.46,220.16 L 1095.21,219.55 L 1103.19,218.06 L 1105.24,217.67 L 1109.54,216.80 L 1111.72,216.35 L 1116.31,215.37 L 1118.65,214.87 L 1123.61,213.78 L 1131.50,212.00 L 1134.20,211.38 L 1139.11,210.22 L 1141.48,209.65 L 1145.70,208.59 L 1147.72,208.07 L 1151.23,207.12 L 1152.89,206.65 L 1155.65,205.81 L 1156.94,205.40 L 1158.93,204.69 L 1159.83,204.34 L 1161.03,203.76 L 1161.52,203.48 L 1161.90,203.04 L 1161.50,202.54 L 1159.24,201.71 L 1155.15,199.86 L 1153.16,198.90 L 1149.50,196.74 L 1147.71,195.60 L 1144.35,193.02 L 1139.47,188.58 L 1137.98,187.08 L 1135.34,184.09 L 1134.08,182.58 L 1131.87,179.54 L 1130.82,178.01 L 1129.03,174.87 L 1128.18,173.28 L 1126.78,169.97 L 1126.13,168.29 L 1125.09,164.77 L 1124.61,162.97 L 1123.92,159.16 L 1123.61,157.22 L 1123.24,153.07 L 1123.01,146.41 L 1123.01,143.16 L 1123.49,137.16 L 1123.82,134.21 L 1125.04,128.48 L 1125.75,125.61 L 1127.83,119.73 L 1128.40,118.23 L 1129.73,115.14 L 1132.01,110.29 L 1133.72,106.82 L 1137.71,100.20 L 1139.79,96.95 L 1144.48,90.80 L 1146.90,87.80 L 1152.20,82.19 L 1154.93,79.46 L 1160.77,74.46 L 1163.75,72.04 L 1170.07,67.70 L 1173.27,65.62 L 1179.98,62.00 L 1183.37,60.29 L 1190.39,57.45 L 1201.20,54.15 L 1204.02,53.47 L 1209.50,52.50 L 1212.21,52.08 L 1217.48,51.64 L 1220.09,51.48 L 1225.15,51.56 L 1227.65,51.66 L 1232.49,52.26 L 1234.88,52.63 L 1239.50,53.75 L 1241.78,54.37 L 1246.17,56.02 L 1248.33,56.90 L 1252.49,59.06 L 1258.45,62.89 L 1260.38,64.30 L 1263.96,67.49 L 1265.70,69.14 L 1268.86,72.78 L 1270.38,74.65 L 1273.08,78.69 L 1276.55,85.12 L 1276.91,85.89 L 1277.50,87.22 L 1277.77,87.86 L 1278.22,89.07 L 1278.64,90.27 L 1279.14,93.01 L 1279.25,93.77 L 1279.40,95.59 L 1279.48,96.56 L 1279.59,98.92 L 1279.64,100.18 L 1279.72,103.24 L 1279.83,108.80 L 1279.88,111.32 L 1279.90,115.71 L 1279.89,117.81 L 1279.76,121.52 L 1279.67,123.30 L 1279.35,126.51 L 1279.17,128.07 L 1278.63,130.97 L 1278.32,132.40 L 1277.51,135.19 L 1277.07,136.59 L 1275.95,139.45 L 1275.35,140.91 L 1273.88,144.04 L 1271.24,149.25 L 1269.52,152.53 L 1265.66,158.71 L 1263.66,161.74 L 1259.24,167.41 L 1256.97,170.19 L 1252.02,175.34 L 1249.48,177.86 L 1244.01,182.49 L 1241.21,184.73 L 1235.23,188.82 L 1232.18,190.80 L 1225.71,194.34 L 1222.41,196.03 L 1215.45,199.01 L 1204.49,202.83 L 1203.12,203.24 L 1199.90,204.26 L 1198.25,204.80 L 1194.79,205.95 L 1193.07,206.54 L 1189.78,207.69 L 1185.50,209.26 L 1180.40,211.22 L 1170.61,214.60 L 1168.14,215.41 L 1163.08,216.98 L 1160.51,217.75 L 1155.13,219.27 L 1152.39,220.03 L 1146.52,221.55 L 1143.51,222.31 L 1136.97,223.88 L 1133.60,224.67 L 1126.22,226.34 L 1124.31,226.76 L 1120.31,227.64 L 1114.00,229.00 L 1112.05,229.41 L 1108.42,230.18 L 1106.64,230.55 L 1103.32,231.22 L 1100.06,231.88 L 1094.21,232.95 L 1091.35,233.45 L 1085.91,234.24 L 1083.20,234.61 L 1077.69,235.17 L 1074.88,235.43 L 1068.79,235.81 L 1067.20,235.89 L 1063.84,236.04 L 1062.13,236.10 L 1058.45,236.22 L 1056.57,236.27 L 1052.51,236.35 L 1050.43,236.40 L 1045.94,236.46 L 1043.63,236.49 L 1038.63,236.55 L 1030.50,236.62 L 1028.06,236.64 L 1023.60,236.67 L 1021.43,236.69 L 1017.46,236.71 L 1015.54,236.72 L 1012.04,236.74 L 1010.34,236.74 L 1007.26,236.75 L 1005.77,236.75 L 1003.07,236.74 L 1001.77,236.74 L 999.42,236.72 L 998.28,236.70 L 996.24,236.67 L 995.25,236.65 L 993.47,236.60 L 991.75,236.54 L 988.95,236.37 L 987.62,236.28 L 985.37,236.04 L 983.20,235.77 M 741.34,220.37 L 742.07,220.26 L 744.01,219.88 L 745.05,219.67 L 747.54,219.12 L 748.85,218.83 L 751.82,218.12 L 753.35,217.76 L 756.68,216.93 L 760.09,216.08 L 767.63,214.11 L 771.45,213.09 L 779.24,210.96 L 783.10,209.90 L 790.41,207.82 L 792.17,207.31 L 795.47,206.34 L 797.07,205.86 L 799.99,204.98 L 801.39,204.54 L 803.83,203.77 L 804.98,203.39 L 806.85,202.75 L 807.71,202.45 L 808.92,201.97 L 809.88,201.45 L 809.94,201.39 L 809.65,201.28 L 809.45,201.22 L 808.70,201.13 L 808.28,201.09 L 807.17,201.04 L 805.23,201.00 L 803.82,201.00 L 801.45,200.73 L 800.94,200.65 L 800.18,200.45 L 799.56,200.10 L 799.54,200.06 L 799.56,199.78 L 799.58,199.60 L 799.66,199.04 L 799.72,198.72 L 799.87,197.89 L 799.96,197.45 L 800.18,196.36 L 800.42,195.22 L 801.07,192.25 L 801.43,190.66 L 802.29,186.87 L 802.75,184.89 L 803.80,180.41 L 804.35,178.10 L 805.56,173.05 L 806.19,170.47 L 807.53,164.97 L 809.66,156.35 L 810.44,153.20 L 811.86,147.44 L 812.55,144.64 L 813.80,139.52 L 814.40,137.04 L 815.47,132.53 L 815.99,130.35 L 816.90,126.40 L 817.33,124.49 L 818.08,121.06 L 818.43,119.40 L 819.02,116.45 L 819.29,115.03 L 819.73,112.50 L 819.93,111.29 L 820.22,109.15 L 820.35,108.12 L 820.50,106.33 L 820.56,105.47 L 820.58,103.97 L 820.57,103.26 L 820.46,102.02 L 820.39,101.42 L 820.16,100.39 L 819.89,99.41 L 819.02,97.89 L 817.23,95.92 L 816.53,95.29 L 815.33,94.40 L 814.74,94.01 L 813.51,93.51 L 812.86,93.31 L 811.27,93.10 L 808.11,93.00 L 806.71,93.00 L 804.09,93.20 L 802.82,93.33 L 800.47,93.79 L 799.32,94.05 L 797.21,94.79 L 796.18,95.19 L 794.31,96.19 L 793.40,96.73 L 791.76,98.03 L 790.97,98.71 L 789.54,100.28 L 788.85,101.11 L 787.64,102.98 L 786.04,106.12 L 785.97,106.29 L 785.77,106.84 L 785.67,107.15 L 785.41,107.98 L 785.13,108.87 L 784.40,111.39 L 784.01,112.77 L 783.07,116.18 L 782.59,117.98 L 781.48,122.13 L 780.91,124.29 L 779.67,129.06 L 779.04,131.51 L 777.70,136.77 L 777.02,139.45 L 775.62,145.07 L 773.47,153.75 L 772.75,156.69 L 771.35,162.39 L 770.66,165.19 L 769.33,170.53 L 768.68,173.14 L 767.46,178.00 L 766.87,180.35 L 765.79,184.60 L 765.27,186.64 L 764.36,190.17 L 763.93,191.83 L 763.23,194.50 L 762.90,195.72 L 762.43,197.43 L 762.33,197.78 L 762.18,198.30 L 762.02,198.75 L 761.78,199.31 L 761.08,200.05 L 760.83,200.20 L 760.05,200.45 L 759.59,200.56 L 758.26,200.71 L 757.51,200.79 L 755.44,200.88 L 754.30,200.92 L 751.33,200.96 L 750.52,200.97 L 748.69,200.98 L 747.75,200.99 L 745.63,201.00 L 744.54,201.00 L 742.11,201.00 L 738.08,201.00 L 734.92,201.00 L 729.13,200.94 L 727.74,200.92 L 725.18,200.87 L 723.94,200.84 L 721.72,200.77 L 720.66,200.74 L 718.84,200.66 L 717.99,200.62 L 716.64,200.53 L 716.03,200.48 L 715.21,200.39 L 714.64,200.23 L 714.61,200.18 L 714.68,199.54 L 714.73,199.13 L 714.97,197.85 L 715.10,197.13 L 715.48,195.27 L 715.69,194.28 L 716.20,191.92 L 716.47,190.69 L 717.10,187.91 L 717.42,186.47 L 718.15,183.35 L 720.61,173.02 L 721.49,169.38 L 723.07,162.65 L 723.44,161.03 L 724.12,158.04 L 724.44,156.58 L 725.01,153.96 L 725.28,152.71 L 725.73,150.54 L 725.93,149.51 L 726.24,147.87 L 726.37,147.12 L 726.52,146.08 L 726.56,145.29 L 726.51,145.16 L 725.91,144.94 L 725.51,144.83 L 724.10,144.65 L 723.28,144.57 L 720.91,144.43 L 720.25,144.40 L 718.72,144.34 L 717.92,144.31 L 716.10,144.26 L 715.15,144.23 L 713.02,144.19 L 711.91,144.17 L 709.45,144.14 L 708.17,144.12 L 705.36,144.09 L 703.90,144.08 L 700.72,144.06 L 699.08,144.05 L 695.50,144.03 L 693.66,144.02 L 689.68,144.01 L 687.64,144.01 L 683.23,144.00 L 676.11,144.00 L 672.68,144.00 L 666.05,144.01 L 662.78,144.02 L 656.59,144.05 L 653.57,144.06 L 647.96,144.10 L 645.25,144.13 L 640.37,144.18 L 638.04,144.21 L 634.03,144.27 L 632.14,144.30 L 629.14,144.37 L 628.46,144.39 L 627.31,144.43 L 626.77,144.45 L 625.92,144.49 L 625.53,144.50 L 625.00,144.55 L 624.58,144.61 L 623.96,144.84 L 623.28,145.75 L 623.02,146.26 L 623.00,147.61 L 623.06,148.33 L 623.61,149.99 L 623.95,150.85 L 625.00,152.69 L 625.58,153.62 L 627.04,155.51 L 627.81,156.44 L 629.60,158.24 L 630.53,159.12 L 632.56,160.69 L 635.79,162.66 L 636.49,163.00 L 638.00,163.53 L 638.80,163.76 L 640.66,164.10 L 641.65,164.24 L 644.06,164.41 L 648.50,164.50 L 649.87,164.50 L 652.35,164.41 L 653.56,164.35 L 655.78,164.12 L 657.94,163.84 L 661.79,162.76 L 663.69,162.11 L 667.45,160.12 L 668.41,159.55 L 670.43,158.21 L 673.67,155.87 L 674.55,155.20 L 676.29,153.98 L 677.14,153.40 L 678.68,152.43 L 679.41,151.99 L 680.57,151.38 L 681.69,151.00 L 681.81,151.00 L 682.37,151.07 L 682.70,151.11 L 683.67,151.25 L 684.19,151.33 L 685.50,151.54 L 686.19,151.65 L 687.78,151.92 L 689.43,152.20 L 693.33,152.88 L 695.34,153.23 L 699.62,154.00 L 701.77,154.39 L 705.96,155.16 L 708.00,155.54 L 711.64,156.23 L 712.50,156.40 L 714.02,156.70 L 714.75,156.84 L 715.97,157.09 L 716.54,157.21 L 717.41,157.40 L 718.25,157.61 L 718.94,157.82 L 719.66,158.48 L 719.78,158.68 L 719.84,159.18 L 719.85,159.45 L 719.66,160.11 L 719.54,160.47 L 719.09,161.33 L 718.84,161.78 L 718.13,162.87 L 717.74,163.44 L 716.74,164.79 L 714.92,167.12 L 712.89,169.67 L 708.43,174.48 L 706.13,176.83 L 701.18,181.21 L 698.66,183.34 L 693.30,187.26 L 690.57,189.15 L 684.87,192.55 L 681.98,194.19 L 676.01,197.05 L 672.99,198.40 L 666.80,200.68 L 663.69,201.74 L 657.36,203.40 L 647.79,205.14 L 646.91,205.25 L 645.41,205.45 L 644.70,205.55 L 643.52,205.74 L 642.96,205.83 L 642.07,206.00 L 641.67,206.08 L 641.07,206.23 L 640.80,206.31 L 640.48,206.46 L 640.35,206.53 L 640.28,206.67 L 641.00,207.09 L 641.17,207.14 L 641.84,207.34 L 642.22,207.46 L 643.27,207.78 L 643.84,207.95 L 645.22,208.37 L 645.95,208.59 L 647.61,209.10 L 649.33,209.62 L 653.40,210.86 L 660.00,212.87 L 662.79,213.71 L 667.65,215.17 L 669.98,215.85 L 674.07,217.02 L 676.04,217.56 L 679.53,218.48 L 681.21,218.90 L 684.28,219.60 L 687.26,220.25 L 692.71,221.08 L 694.09,221.26 L 696.93,221.55 L 701.50,221.91 L 704.95,222.15 L 711.76,222.34 L 715.16,222.40 L 721.84,222.23 L 725.17,222.10 L 731.71,221.57 L 734.96,221.26 M 521.45,196.40 L 521.57,195.77 L 521.73,194.75 L 521.79,194.27 L 521.84,193.55 L 521.86,193.23 L 521.82,192.81 L 521.78,192.64 L 521.65,192.53 L 521.57,192.51 L 521.35,192.70 L 521.23,192.84 L 520.93,193.34 L 520.77,193.62 L 520.39,194.43 L 519.74,195.99 L 519.43,196.78 L 519.02,197.95 L 518.86,198.48 L 518.75,199.18 L 518.73,199.49 L 518.90,199.82 L 519.47,200.00 L 519.65,200.00 L 520.03,199.72 L 520.22,199.53 L 520.59,198.94 L 520.95,198.29 M 606.04,198.20 L 604.12,196.88 L 600.64,194.21 L 598.96,192.87 L 595.91,190.14 L 594.44,188.77 L 591.81,185.94 L 590.54,184.50 L 588.29,181.54 L 587.21,180.03 L 585.33,176.89 L 584.43,175.30 L 582.87,171.95 L 582.14,170.25 L 580.90,166.66 L 579.35,160.96 L 579.14,159.99 L 578.71,158.24 L 578.51,157.42 L 578.14,156.07 L 577.96,155.46 L 577.70,154.65 L 577.45,154.22 L 577.42,154.25 L 577.24,154.76 L 577.14,155.09 L 576.85,156.12 L 576.69,156.69 L 576.29,158.18 L 576.08,158.96 L 575.59,160.82 L 575.34,161.78 L 574.79,163.93 L 574.51,165.03 L 573.91,167.39 L 573.30,169.79 L 572.02,174.93 L 571.39,177.50 L 570.17,182.52 L 569.57,184.96 L 568.56,189.25 L 568.32,190.25 L 567.92,192.01 L 567.73,192.84 L 567.43,194.20 L 567.29,194.83 L 567.11,195.73 L 567.00,196.46 L 567.00,196.79 L 567.52,197.26 L 567.72,197.36 L 568.32,197.53 L 568.65,197.61 L 569.58,197.74 L 570.09,197.80 L 571.42,197.89 L 572.13,197.93 L 573.91,197.99 L 574.87,198.01 L 577.16,198.05 L 581.25,198.09 L 583.21,198.10 L 587.18,198.18 L 589.13,198.23 L 592.78,198.38 L 594.53,198.46 L 597.43,198.64 L 598.09,198.69 L 599.20,198.80 L 600.50,198.95 L 601.46,199.10 L 603.05,199.34 L 603.79,199.45 L 604.98,199.60 L 605.52,199.67 L 606.33,199.73 L 606.69,199.75 L 607.16,199.72 L 607.35,199.70 L 607.49,199.57 L 607.53,199.50 L 607.39,199.27 L 607.29,199.15 L 606.89,198.82 L 606.66,198.64 M 880.50,194.77 L 879.17,193.72 L 876.60,191.40 L 875.34,190.22 L 872.92,187.68 L 871.74,186.39 L 869.53,183.70 L 868.46,182.34 L 866.50,179.57 L 865.56,178.17 L 863.89,175.38 L 863.10,173.98 L 861.78,171.24 L 861.16,169.87 L 860.23,167.24 L 859.31,163.50 L 859.14,162.48 L 858.72,160.99 L 858.49,160.34 L 858.00,159.63 L 857.76,159.37 L 857.27,159.51 L 856.61,160.74 L 856.57,160.86 L 856.41,161.47 L 856.32,161.82 L 856.06,162.84 L 855.92,163.39 L 855.59,164.76 L 855.41,165.48 L 855.00,167.12 L 854.59,168.83 L 853.61,172.84 L 853.11,174.90 L 852.07,179.23 L 851.55,181.39 L 850.56,185.55 L 850.08,187.56 L 849.26,191.05 L 849.07,191.86 L 848.74,193.26 L 848.59,193.92 L 848.34,194.98 L 848.23,195.46 L 848.09,196.12 L 848.00,196.59 L 848.00,196.62 L 848.32,196.67 L 848.53,196.70 L 849.24,196.75 L 849.64,196.78 L 850.70,196.84 L 851.27,196.87 L 852.63,196.93 L 854.05,196.99 L 857.63,197.11 L 863.75,197.25 L 865.92,197.29 L 870.06,197.38 L 872.07,197.43 L 875.61,197.52 L 876.43,197.54 L 877.91,197.59 L 878.61,197.61 L 879.79,197.65 L 880.34,197.67 L 881.18,197.70 L 882.00,197.74 L 882.57,197.79 L 883.25,197.76 L 883.50,197.72 L 883.48,197.41 L 883.38,197.21 L 882.60,196.48 L 882.11,196.05 M 529.52,161.97 L 529.55,161.93 L 529.79,161.08 L 529.94,160.55 L 530.40,158.82 L 530.65,157.87 L 531.30,155.39 L 531.64,154.07 L 532.44,150.98 L 532.86,149.37 L 533.77,145.78 L 534.25,143.94 L 535.25,140.00 L 536.27,135.99 L 538.43,127.44 L 539.51,123.16 L 541.59,114.86 L 542.09,112.85 L 543.04,109.06 L 543.50,107.21 L 544.33,103.83 L 544.73,102.21 L 545.42,99.38 L 545.75,98.05 L 546.27,95.91 L 546.50,94.93 L 546.81,93.59 L 547.00,92.64 L 547.00,92.59 L 546.79,92.52 L 546.65,92.49 L 546.19,92.45 L 545.68,92.42 L 544.05,92.45 L 543.16,92.47 L 541.01,92.60 L 539.89,92.67 L 537.49,92.86 L 536.29,92.96 L 533.93,93.20 L 532.78,93.33 L 530.76,93.59 L 529.81,93.72 L 528.40,93.98 L 527.30,94.33 L 527.22,94.41 L 526.93,95.16 L 526.76,95.63 L 526.30,97.09 L 526.05,97.90 L 525.44,99.98 L 525.12,101.08 L 524.40,103.66 L 524.03,105.01 L 523.22,107.99 L 522.80,109.53 L 521.93,112.81 L 521.05,116.16 L 519.20,123.31 L 518.28,126.90 L 516.52,133.92 L 516.10,135.63 L 515.31,138.88 L 514.92,140.47 L 514.22,143.41 L 513.89,144.83 L 513.31,147.34 L 513.04,148.54 L 512.61,150.53 L 512.41,151.45 L 512.16,152.82 L 512.00,154.06 L 512.00,154.88 L 512.39,156.53 L 512.64,157.34 L 513.45,158.84 L 513.89,159.55 L 515.00,160.71 L 516.89,161.89 L 517.78,162.21 L 520.25,162.63 L 521.54,162.79 L 524.24,162.89 L 525.55,162.90 L 527.71,162.68 L 528.18,162.60 L 528.90,162.39 L 529.20,162.27 M 1211.20,157.75 L 1212.91,156.90 L 1216.10,154.98 L 1217.65,153.99 L 1220.51,151.81 L 1221.89,150.69 L 1224.42,148.28 L 1225.64,147.05 L 1227.82,144.47 L 1228.87,143.15 L 1230.70,140.43 L 1231.57,139.05 L 1233.04,136.22 L 1233.73,134.79 L 1234.83,131.90 L 1235.33,130.46 L 1236.05,127.55 L 1236.37,126.10 L 1236.70,123.21 L 1236.82,121.78 L 1236.76,118.95 L 1236.68,117.55 L 1236.21,114.83 L 1235.93,113.49 L 1235.05,110.92 L 1234.56,109.65 L 1233.26,107.27 L 1232.55,106.10 L 1230.82,103.94 L 1229.90,102.89 L 1227.73,101.00 L 1223.97,98.50 L 1222.74,97.83 L 1220.78,96.90 L 1219.84,96.49 L 1217.99,96.00 L 1217.03,95.80 L 1214.68,95.62 L 1214.03,95.59 L 1212.54,95.56 L 1209.92,95.56 L 1208.95,95.57 L 1207.28,95.60 L 1206.48,95.62 L 1205.08,95.70 L 1203.73,95.79 L 1201.47,96.20 L 1200.35,96.46 L 1197.99,97.32 L 1197.37,97.57 L 1195.97,98.19 L 1193.56,99.31 L 1191.90,100.10 L 1188.75,101.94 L 1187.20,102.90 L 1184.31,105.05 L 1182.89,106.16 L 1180.29,108.59 L 1179.02,109.84 L 1176.73,112.51 L 1175.63,113.87 L 1173.68,116.75 L 1172.76,118.21 L 1171.19,121.26 L 1170.45,122.80 L 1169.28,125.98 L 1168.02,130.86 L 1167.72,132.46 L 1167.50,135.60 L 1167.46,137.16 L 1167.74,140.17 L 1167.94,141.66 L 1168.69,144.51 L 1169.13,145.91 L 1170.34,148.55 L 1171.00,149.84 L 1172.65,152.23 L 1173.53,153.40 L 1175.59,155.50 L 1176.68,156.52 L 1179.13,158.30 L 1183.24,160.55 L 1183.80,160.81 L 1185.21,161.19 L 1185.96,161.36 L 1187.79,161.60 L 1188.76,161.70 L 1191.05,161.79 L 1195.06,161.76 L 1196.00,161.73 L 1197.65,161.66 L 1198.44,161.62 L 1199.83,161.50 L 1201.18,161.38 L 1203.45,160.92 L 1204.57,160.64 L 1206.90,159.75 L 1207.52,159.49 L 1208.88,158.87 L 1209.59,158.54 M 693.01,110.49 L 693.20,110.25 L 693.50,109.58 L 693.63,109.21 L 693.78,108.30 L 693.71,104.88 L 693.52,103.43 L 692.41,100.79 L 691.75,99.51 L 689.80,97.24 L 688.74,96.16 L 686.08,94.32 L 684.68,93.46 L 681.43,92.09 L 679.75,91.47 L 676.05,90.62 L 674.16,90.27 L 670.13,89.98 L 668.08,89.92 L 663.85,90.25 L 657.41,91.49 L 655.97,91.88 L 653.04,93.00 L 651.58,93.61 L 648.69,95.09 L 647.27,95.86 L 644.57,97.59 L 643.25,98.47 L 640.87,100.34 L 639.73,101.27 L 637.80,103.16 L 636.90,104.10 L 635.55,105.91 L 634.97,106.79 L 634.34,108.40 L 634.35,110.48 L 634.41,110.62 L 635.13,110.88 L 635.59,111.00 L 637.05,111.22 L 637.85,111.33 L 639.93,111.52 L 641.03,111.61 L 643.62,111.76 L 644.97,111.83 L 647.96,111.95 L 649.50,112.00 L 652.80,112.08 L 656.15,112.16 L 663.30,112.19 L 666.88,112.19 L 673.85,112.09 L 675.54,112.05 L 678.74,111.96 L 680.30,111.90 L 683.17,111.77 L 684.55,111.70 L 686.97,111.53 L 688.11,111.44 L 689.98,111.24 L 690.84,111.13 L 692.05,110.89 L 692.56,110.77 M 972.43,110.43 L 972.94,109.92 L 973.56,108.87 L 973.80,108.32 L 973.88,107.03 L 973.85,106.34 L 973.38,104.62 L 972.06,101.32 L 971.61,100.33 L 970.46,98.54 L 969.84,97.68 L 968.36,96.15 L 967.59,95.42 L 965.79,94.15 L 964.85,93.55 L 962.74,92.55 L 961.65,92.08 L 959.24,91.34 L 957.99,91.01 L 955.29,90.54 L 953.90,90.34 L 950.91,90.15 L 946.11,90.18 L 944.36,90.26 L 941.52,90.52 L 940.18,90.66 L 937.86,91.12 L 936.73,91.38 L 934.52,92.13 L 930.86,93.69 L 929.55,94.30 L 927.02,95.71 L 925.78,96.44 L 923.44,98.02 L 922.30,98.83 L 920.23,100.50 L 919.24,101.34 L 917.54,103.01 L 916.73,103.84 L 915.47,105.43 L 914.89,106.21 L 914.14,107.63 L 913.84,108.31 L 913.70,109.48 L 914.25,110.85 L 914.35,110.95 L 914.92,111.13 L 915.27,111.22 L 916.36,111.37 L 916.97,111.45 L 918.59,111.57 L 919.47,111.63 L 921.66,111.73 L 922.83,111.78 L 925.62,111.85 L 927.08,111.88 L 930.48,111.93 L 932.26,111.96 L 936.31,111.98 L 943.13,112.00 L 944.62,112.00 L 947.38,112.00 L 948.72,112.00 L 951.19,111.99 L 953.59,111.98 L 957.59,111.94 L 959.47,111.92 L 962.53,111.86 L 963.96,111.82 L 966.22,111.72 L 967.27,111.67 L 968.86,111.52 L 969.58,111.44 L 970.64,111.24 L 971.11,111.14 L 971.76,110.88 L 972.05,110.75 M 2.00,127.02 L 2.00,53.00 L 19.92,53.00 L 22.38,53.00 L 27.00,53.05 L 29.22,53.08 L 33.04,53.18 L 33.92,53.21 L 35.46,53.27 L 36.19,53.30 L 37.39,53.37 L 37.94,53.41 L 38.73,53.49 L 39.42,53.61 L 39.88,53.78 L 40.56,54.84 L 41.00,57.05 L 41.00,58.05 L 41.28,59.39 L 41.48,59.94 L 42.25,60.39 L 42.70,60.51 L 44.06,60.11 L 44.44,59.95 L 45.33,59.49 L 46.88,58.57 L 49.15,57.14 L 54.10,54.95 L 56.63,53.96 L 61.98,52.66 L 64.69,52.11 L 70.28,51.68 L 73.09,51.56 L 78.77,51.98 L 81.61,52.29 L 87.22,53.53 L 90.00,54.26 L 95.40,56.32 L 98.05,57.46 L 103.07,60.32 L 110.00,65.50 L 110.70,66.12 L 112.01,67.25 L 112.65,67.79 L 113.75,68.68 L 114.26,69.09 L 115.02,69.64 L 115.64,70.00 L 115.72,70.00 L 116.30,69.60 L 116.65,69.34 L 117.67,68.52 L 118.23,68.06 L 119.56,66.91 L 121.75,64.95 L 122.98,63.82 L 125.52,61.79 L 126.80,60.81 L 129.45,59.07 L 130.79,58.24 L 133.55,56.78 L 134.95,56.09 L 137.84,54.92 L 139.30,54.37 L 142.32,53.48 L 143.85,53.07 L 147.00,52.45 L 148.60,52.18 L 151.89,51.85 L 157.01,51.65 L 158.60,51.66 L 161.76,51.87 L 163.33,52.01 L 166.43,52.49 L 169.51,53.04 L 175.43,54.87 L 178.35,55.91 L 183.86,58.67 L 186.55,60.15 L 191.53,63.74 L 193.94,65.63 L 198.27,69.95 L 200.35,72.20 L 203.92,77.17 L 204.76,78.45 L 206.27,81.12 L 207.01,82.47 L 208.29,85.27 L 208.91,86.68 L 209.95,89.60 L 211.23,94.10 L 211.35,94.60 L 211.55,96.11 L 211.65,96.97 L 211.82,99.26 L 211.91,100.52 L 212.04,103.69 L 212.11,105.39 L 212.22,109.53 L 212.24,110.63 L 212.29,113.03 L 212.31,114.26 L 212.35,116.94 L 212.36,118.31 L 212.39,121.28 L 212.41,122.80 L 212.43,126.06 L 212.45,127.73 L 212.46,131.30 L 212.47,133.13 L 212.48,137.03 L 212.49,139.02 L 212.50,143.26 L 212.50,150.00 L 212.50,200.50 L 189.00,200.50 L 165.50,200.50 L 165.00,154.00 L 164.50,107.50 L 161.89,101.93 L 161.49,101.08 L 160.66,99.60 L 160.24,98.90 L 159.33,97.68 L 158.87,97.10 L 157.85,96.13 L 157.33,95.68 L 156.17,94.93 L 155.57,94.58 L 154.23,94.04 L 153.54,93.80 L 151.99,93.44 L 151.19,93.29 L 149.40,93.11 L 146.41,93.00 L 144.48,93.00 L 140.99,93.52 L 139.31,93.87 L 136.40,95.04 L 135.03,95.71 L 132.80,97.49 L 130.34,100.79 L 130.13,101.22 L 129.78,102.19 L 129.61,102.71 L 129.33,104.12 L 129.20,104.90 L 128.98,107.04 L 128.93,107.63 L 128.84,109.01 L 128.79,109.74 L 128.71,111.41 L 128.67,112.29 L 128.60,114.28 L 128.56,115.33 L 128.50,117.69 L 128.47,118.92 L 128.41,121.68 L 128.38,123.12 L 128.32,126.32 L 128.29,127.99 L 128.24,131.67 L 128.22,133.58 L 128.16,137.78 L 128.14,139.94 L 128.08,144.70 L 128.00,152.50 L 127.50,200.50 L 104.50,200.50 L 81.50,200.50 L 81.00,153.47 L 80.50,106.44 L 78.00,101.59 L 77.56,100.73 L 76.65,99.25 L 76.19,98.54 L 75.21,97.34 L 74.70,96.77 L 73.61,95.83 L 73.05,95.38 L 71.80,94.68 L 71.16,94.36 L 69.73,93.88 L 68.98,93.66 L 67.32,93.38 L 66.46,93.27 L 64.53,93.17 L 61.30,93.21 L 60.29,93.25 L 58.48,93.42 L 57.61,93.51 L 56.05,93.79 L 54.55,94.09 L 52.14,95.13 L 51.01,95.74 L 49.11,97.49 L 46.50,101.10 L 46.26,101.51 L 45.87,102.37 L 45.68,102.83 L 45.37,104.07 L 45.23,104.77 L 45.00,106.73 L 44.94,107.29 L 44.85,108.59 L 44.80,109.27 L 44.71,110.87 L 44.67,111.71 L 44.60,113.66 L 44.56,114.67 L 44.50,117.00 L 44.47,118.22 L 44.41,120.98 L 44.38,122.41 L 44.32,125.64 L 44.30,127.32 L 44.24,131.06 L 44.22,133.00 L 44.17,137.30 L 44.14,139.52 L 44.09,144.43 L 44.00,152.50 L 43.50,200.50 L 22.75,200.77 L 2.00,201.04 L 2.00,127.02 M 560.53,41.05 L 560.50,40.99 L 560.50,40.59 L 560.51,40.34 L 560.61,39.59 L 560.67,39.17 L 560.85,38.13 L 560.95,37.57 L 561.20,36.28 L 561.46,34.93 L 562.16,31.69 L 562.53,30.00 L 563.37,26.38 L 563.80,24.55 L 564.69,20.92 L 565.13,19.13 L 565.99,15.87 L 566.40,14.31 L 567.14,11.79 L 567.31,11.22 L 567.61,10.29 L 568.00,9.25 L 568.24,8.69 L 568.91,7.96 L 569.15,7.80 L 569.89,7.56 L 570.32,7.45 L 571.58,7.29 L 572.28,7.22 L 574.21,7.12 L 575.28,7.08 L 578.06,7.04 L 578.82,7.03 L 580.52,7.02 L 581.40,7.01 L 583.38,7.01 L 584.40,7.00 L 586.67,7.00 L 590.42,7.00 L 593.52,7.00 L 599.05,7.07 L 600.36,7.09 L 602.76,7.16 L 603.92,7.19 L 605.97,7.27 L 606.95,7.31 L 608.61,7.41 L 609.39,7.46 L 610.62,7.57 L 611.18,7.62 L 611.93,7.75 L 612.47,7.95 L 612.52,8.04 L 612.53,8.55 L 612.52,8.85 L 612.41,9.75 L 612.34,10.24 L 612.13,11.46 L 612.01,12.11 L 611.71,13.60 L 611.38,15.15 L 610.52,18.82 L 610.07,20.72 L 609.05,24.72 L 608.53,26.72 L 607.46,30.59 L 606.93,32.46 L 605.94,35.74 L 605.70,36.50 L 605.26,37.83 L 605.05,38.46 L 604.67,39.49 L 604.49,39.95 L 604.18,40.61 L 603.83,41.13 L 603.71,41.20 L 603.04,41.33 L 602.64,41.40 L 601.46,41.51 L 600.82,41.56 L 599.21,41.66 L 598.35,41.70 L 596.38,41.78 L 594.34,41.85 L 589.51,41.93 L 587.02,41.96 L 581.76,41.97 L 579.13,41.97 L 574.06,41.90 L 571.61,41.86 L 567.34,41.73 L 566.36,41.69 L 564.64,41.60 L 563.83,41.55 L 562.53,41.44 L 561.93,41.39 L 561.12,41.26 L 560.78,41.20 M 1187.57,145.23 L 1187.08,144.75 L 1186.80,143.42 L 1186.78,142.71 L 1187.41,140.97 L 1187.84,140.05 L 1189.37,137.94 L 1192.63,134.41 L 1193.48,133.60 L 1194.97,132.27 L 1195.69,131.65 L 1196.97,130.68 L 1197.59,130.25 L 1198.70,129.66 L 1199.24,129.40 L 1200.22,129.17 L 1200.70,129.10 L 1201.60,129.22 L 1202.04,129.33 L 1202.90,129.80 L 1203.33,130.08 L 1204.20,130.89 L 1205.56,132.48 L 1206.29,133.44 L 1208.43,135.56 L 1208.98,136.07 L 1210.08,136.98 L 1211.61,138.07 L 1212.48,138.60 L 1213.72,139.77 L 1214.26,140.36 L 1214.82,141.55 L 1215.00,142.14 L 1214.84,143.26 L 1213.75,144.75 L 1213.67,144.81 L 1213.25,144.93 L 1213.01,144.99 L 1212.29,145.10 L 1211.51,145.21 L 1209.25,145.40 L 1208.03,145.48 L 1205.15,145.61 L 1203.67,145.67 L 1200.54,145.75 L 1198.98,145.78 L 1195.94,145.79 L 1194.47,145.78 L 1191.89,145.72 L 1190.69,145.68 L 1188.92,145.54 L 1188.55,145.50 L 1188.01,145.40 L 1187.78,145.35 M 1182.31,135.21 L 1181.99,135.01 L 1181.15,133.83 L 1180.02,131.55 L 1179.68,130.65 L 1179.48,128.91 L 1179.46,128.05 L 1179.79,126.45 L 1180.02,125.68 L 1180.76,124.33 L 1181.17,123.69 L 1182.20,122.69 L 1182.74,122.24 L 1183.93,121.69 L 1184.54,121.48 L 1185.77,121.48 L 1186.38,121.56 L 1187.53,122.22 L 1189.03,124.05 L 1189.45,124.83 L 1189.86,126.49 L 1190.00,127.33 L 1189.87,129.01 L 1189.74,129.84 L 1189.09,131.42 L 1187.55,133.55 L 1186.89,134.20 L 1185.88,135.08 L 1185.42,135.45 L 1184.65,135.81 L 1184.27,135.93 L 1183.55,135.82 L 1183.18,135.72 M 1213.75,134.93 L 1213.17,134.59 L 1212.46,133.44 L 1212.18,132.80 L 1212.08,131.19 L 1212.10,130.35 L 1212.60,128.45 L 1214.02,125.47 L 1214.70,124.36 L 1215.99,122.84 L 1216.62,122.19 L 1217.83,121.58 L 1218.43,121.39 L 1219.59,121.68 L 1221.30,123.13 L 1221.82,123.76 L 1222.39,125.19 L 1222.60,125.93 L 1222.55,127.54 L 1222.45,128.37 L 1221.79,130.15 L 1220.10,133.00 L 1219.58,133.72 L 1218.58,134.72 L 1218.08,135.15 L 1217.08,135.59 L 1216.57,135.75 L 1215.50,135.66 L 1214.95,135.54 M 1205.56,121.78 L 1205.30,121.41 L 1204.88,120.45 L 1204.69,119.94 L 1204.40,118.76 L 1204.14,117.55 L 1204.02,114.85 L 1204.02,113.51 L 1204.41,111.09 L 1204.54,110.54 L 1204.89,109.61 L 1205.57,108.57 L 1206.11,108.03 L 1207.47,107.38 L 1208.16,107.13 L 1209.61,107.06 L 1210.32,107.10 L 1211.59,107.58 L 1212.96,108.93 L 1213.31,109.58 L 1213.73,111.42 L 1213.89,112.39 L 1213.96,114.57 L 1213.95,115.66 L 1213.67,117.75 L 1212.85,120.32 L 1212.29,121.38 L 1211.10,122.80 L 1210.49,123.40 L 1209.24,123.89 L 1208.61,124.01 L 1207.37,123.55 L 1206.75,123.20 M 1191.07,119.37 L 1190.46,118.58 L 1189.65,116.89 L 1189.32,116.03 L 1189.09,114.27 L 1189.04,113.39 L 1189.38,111.66 L 1190.56,109.22 L 1191.02,108.57 L 1192.05,107.70 L 1192.58,107.34 L 1193.69,107.02 L 1194.25,106.92 L 1195.36,107.08 L 1195.90,107.22 L 1196.92,107.81 L 1197.41,108.15 L 1198.26,109.12 L 1198.66,109.64 L 1199.25,110.91 L 1199.51,111.58 L 1199.76,113.10 L 1199.68,115.61 L 1199.54,116.45 L 1199.14,117.89 L 1198.93,118.58 L 1198.39,119.69 L 1198.10,120.21 L 1197.44,120.98 L 1197.10,121.33 L 1196.34,121.76 L 1195.95,121.93 L 1195.12,122.00 L 1194.69,121.99 L 1193.81,121.69 L 1193.36,121.49 L 1192.45,120.82 L 1191.99,120.43 Z" fill="#ecedf7"/>
</g>
</svg>