<svg xmlns="http://www.w3.org/2000/svg" width="174.984" height="127.219" viewBox="0 0 174.984 127.219">
	<linearGradient id="a" x1="-1073" x2="-1073" y1="126" gradientUnits="userSpaceOnUse">
		<stop stop-color="#1b3967"/>
		<stop stop-color="#13b5ea" offset=".46"/>
		<stop stop-color="#002b5c" offset="1"/>
	</linearGradient>
	<path fill="url(#a)" d="M138.39 14.189c.076 1.313-1.788.968-1.788 2.293 0 38.551-46.558 97.366-91.688 108.73v1.639c59.953-5.52 128.56-67.8 130.07-126.85L138.385 14.19z"/>
	<path fill="#e96d1f" d="M120.257 18.932c.076 1.313.12 2.63.12 3.957 0 38.551-30.699 90.497-75.827 101.86v1.639c59.044-2.79 105.81-63.024 105.81-109.2 0-2.375-.128-4.729-.37-7.056l-29.73 8.798z"/>
	<path fill="#d9541e" d="m150.275 9.583-7.617 2.722c.041.962.066 2.254.066 3.225 0 41.219-37.27 98.204-87.272 107.12-3.245 1.088-7.538 2.077-10.932 2.931v1.638c65.254-5.56 111.1-71.866 105.76-117.64Z"/>
	<path fill="url(#a)" d="M36.595 14.188c-.077 1.313 1.787.968 1.787 2.293 0 38.551 46.558 97.366 91.688 108.73v1.639C70.117 121.33 1.51 59.05 0 0l36.599 14.189z"/>
	<path fill="#a0ce67" d="M54.727 18.931a68.401 68.401 0 0 0-.12 3.957c0 38.551 30.699 90.497 75.827 101.86v1.639c-59.044-2.79-105.81-63.024-105.81-109.2 0-2.375.128-4.729.371-7.056l29.73 8.798z"/>
	<path fill="#439639" d="m24.709 9.582 7.617 2.722a84.24 84.24 0 0 0-.066 3.225c0 41.219 37.271 98.204 87.272 107.12 3.245 1.088 7.538 2.077 10.932 2.931v1.638c-65.254-5.56-111.1-71.866-105.76-117.64Z"/>
</svg>